<?xml version="1.0" encoding="iso-8859-1"?>
<!-- Generator: Adobe Illustrator 19.0.0, SVG Export Plug-In . SVG Version: 6.00 Build 0)  -->
<svg version="1.1" id="Capa_1" xmlns="http://www.w3.org/2000/svg" xmlns:xlink="http://www.w3.org/1999/xlink" x="0px" y="0px"
	 viewBox="0 0 512 512" style="enable-background:new 0 0 512 512;" xml:space="preserve">
<g>
	<g>
		<g>
			<path d="M68.772,219.255c-0.784-3.077-3.211-5.465-6.301-6.197c-3.09-0.732-6.331,0.312-8.412,2.71
				c-2.081,2.398-2.659,5.754-1.5,8.71h-0.034c13.545,43.427,30.946,85.556,51.994,125.884c2.258,4.087,7.381,5.6,11.497,3.396
				s5.697-7.307,3.547-11.451C99.005,302.882,82.008,261.702,68.772,219.255z"/>
			<path d="M57.782,191.899c1.106-1.975,1.382-4.308,0.767-6.486c-1.289-4.54-2.466-8.815-3.524-12.8
				c-0.79-2.945-3.09-5.245-6.036-6.034c-2.945-0.789-6.088,0.054-8.243,2.21c-2.156,2.156-2.997,5.299-2.208,8.244
				c1.092,4.045,2.287,8.397,3.593,13.022c1.038,3.671,4.386,6.207,8.201,6.212c0.785,0.001,1.566-0.108,2.321-0.324
				C54.831,195.328,56.676,193.873,57.782,191.899z"/>
			<path d="M507.292,145.98c-4.061-5.827-10.435-9.623-17.493-10.419c-35.234-4.29-68.731-17.729-97.161-38.98
				c-0.06-0.051-0.085-0.119-0.154-0.171c-0.068-0.051-0.119-0.043-0.179-0.077c-11.712-7.663-21.22-18.252-27.58-30.72
				c-3.858-12.858-11.228-24.384-21.282-33.28C329.909,13.244,296.339,0,255.985,0s-73.95,13.252-87.45,32.375
				c-10.012,8.925-17.365,20.442-21.248,33.28c-6.366,12.469-15.879,23.059-27.597,30.72c-0.051,0-0.12,0.043-0.179,0.077
				c-0.06,0.034-0.085,0.119-0.154,0.171c-28.441,21.24-61.947,34.664-97.186,38.938c-7.047,0.809-13.407,4.603-17.468,10.419
				c-4.282,6.136-5.718,13.817-3.942,21.086C20.584,247.825,97.538,511.386,255.456,512h1.092
				c157.918-0.614,234.871-264.175,254.694-344.96C513.013,159.778,511.574,152.106,507.292,145.98z M255.985,17.067
				c45.227,0,76.8,17.988,76.8,34.133s-31.573,34.133-76.8,34.133c-45.227,0-76.8-17.988-76.8-34.133S210.758,17.067,255.985,17.067
				z M163.509,70.903c0.657-2.031,1.382-3.9,2.133-5.675c10.982,21.666,46.677,37.171,90.342,37.171
				c43.665,0,79.437-15.522,90.359-37.205c0.759,1.792,1.493,3.678,2.159,5.726c6.037,13.436,15.411,25.104,27.23,33.894
				c-34.415,45.372-72.602,70.793-111.292,74.018c-0.203-4.523-3.929-8.085-8.457-8.085s-8.253,3.562-8.457,8.085
				c-38.682-3.243-76.877-28.646-111.266-74.018C148.089,96.021,157.469,84.347,163.509,70.903z M269.519,366.933h-27.068
				l-12.066-12.066v-27.068l12.066-12.066h27.068l12.066,12.066v27.068L269.519,366.933z M274.588,406.963
				c-12.147,3.516-25.041,3.516-37.188,0L245.062,384h21.845L274.588,406.963z M266.908,298.667h-21.845l-7.68-22.963
				c12.147-3.516,25.042-3.516,37.188,0h0.009L266.908,298.667z M255.985,256c-9.426,0-17.067-7.641-17.067-17.067
				s7.641-17.067,17.067-17.067s17.067,7.641,17.067,17.067S265.411,256,255.985,256z M494.671,163.004
				c-19.089,77.722-92.646,331.366-238.191,331.93v8.533l-0.99-8.533C109.971,494.37,36.414,240.725,17.342,163.029
				c-0.615-2.494-0.131-5.132,1.331-7.245c1.237-1.812,3.197-3.001,5.376-3.26c35.427-4.26,69.281-17.095,98.628-37.393
				c37.828,49.86,80.666,77.653,124.774,80.802v10.078c-15.025,3.879-25.542,17.405-25.6,32.922
				c0.024,7.784,2.737,15.32,7.68,21.333c-39.891,13.007-64.408,53.084-57.823,94.522c6.585,41.438,42.318,71.941,84.276,71.941
				s77.691-30.503,84.276-71.941c6.585-41.438-17.931-81.515-57.823-94.522c4.943-6.013,7.656-13.549,7.68-21.333
				c-0.058-15.517-10.576-29.042-25.6-32.922v-10.078c44.117-3.166,86.972-30.933,124.8-80.802
				c29.344,20.298,63.195,33.133,98.62,37.393c2.18,0.256,4.143,1.441,5.385,3.251C494.778,157.884,495.268,160.512,494.671,163.004
				z M219.548,368.171l9.609,9.6l-7.509,22.468c-10.15-5.952-18.601-14.411-24.542-24.568L219.548,368.171z M190.355,359.945
				c-1.737-6.052-2.625-12.315-2.637-18.611c0.014-6.29,0.901-12.548,2.637-18.594l22.963,7.68v21.845L190.355,359.945z
				 M219.548,314.505l-22.468-7.509c5.952-10.15,14.411-18.601,24.567-24.542l0.026-0.026l7.501,22.468L219.548,314.505z
				 M292.388,314.47l-9.574-9.574l7.509-22.468c10.15,5.952,18.601,14.411,24.542,24.568L292.388,314.47z M321.615,322.731
				c1.736,6.049,2.624,12.31,2.637,18.603c-0.014,6.29-0.901,12.548-2.637,18.594l-22.963-7.672v-21.845L321.615,322.731z
				 M292.388,368.137l22.468,7.509c-5.936,10.157-14.385,18.617-24.533,24.568h-0.034l-7.509-22.468L292.388,368.137z"/>
		</g>
	</g>
</g>
<g>
</g>
<g>
</g>
<g>
</g>
<g>
</g>
<g>
</g>
<g>
</g>
<g>
</g>
<g>
</g>
<g>
</g>
<g>
</g>
<g>
</g>
<g>
</g>
<g>
</g>
<g>
</g>
<g>
</g>
</svg>
