<?xml version="1.0" encoding="iso-8859-1"?>
<!-- Generator: Adobe Illustrator 19.0.0, SVG Export Plug-In . SVG Version: 6.00 Build 0)  -->
<svg version="1.1" id="Capa_1" xmlns="http://www.w3.org/2000/svg" xmlns:xlink="http://www.w3.org/1999/xlink" x="0px" y="0px"
	 viewBox="0 0 512 512" style="enable-background:new 0 0 512 512;" xml:space="preserve">
<g>
	<g>
		<path d="M448.691,278.605c-0.017-0.111-0.085-0.205-0.102-0.316c0-0.213,0-0.435-0.077-0.648
			c-6.616-24.276-16.158-47.659-28.416-69.632c-0.051-0.102-0.119-0.205-0.179-0.307l-0.077-0.128
			c-28.999-50.907-63.635-98.39-103.253-141.551l14.396-17.997c2.43-3.056,2.476-7.372,0.111-10.479l-25.6-34.133
			C303.882,1.265,301.353,0,298.667,0h-85.333c-2.686,0-5.215,1.265-6.827,3.413l-25.6,34.133c-0.219,0.354-0.41,0.725-0.572,1.109
			c-0.201,0.332-0.381,0.677-0.538,1.033c-0.301,0.822-0.474,1.685-0.512,2.56c0,0.145-0.085,0.265-0.085,0.418v0.068
			c0.014,1.036,0.219,2.06,0.606,3.021c0.149,0.316,0.32,0.621,0.512,0.913c0.204,0.465,0.45,0.91,0.734,1.331l14.396,17.997
			c-39.625,43.152-74.271,90.622-103.287,141.517v0.043c-0.085,0.145-0.171,0.282-0.239,0.418
			c-12.258,21.974-21.8,45.356-28.416,69.632c0,0.154,0,0.324-0.051,0.486c-0.026,0.061-0.049,0.124-0.068,0.188
			c-2.433,12.336-3.656,24.879-3.652,37.453C59.733,424.128,147.605,512,256,512s196.267-87.872,196.267-196.267
			C452.276,303.271,451.078,290.837,448.691,278.605z M217.6,17.067h76.8l19.072,25.429L256,114.347L205.483,51.2H281.6
			c4.713,0,8.533-3.82,8.533-8.533s-3.821-8.533-8.533-8.533h-76.8L217.6,17.067z M256,153.6c-31.37-0.01-62.064,9.12-88.329,26.274
			c7.219-10.487,15.01-21.265,23.501-32.367c41.98-14.631,87.675-14.631,129.656,0c8.533,11.093,16.282,21.879,23.501,32.367
			C318.064,162.72,287.37,153.59,256,153.6z M384.375,248.439l0.043,0.077l0.119,0.265c4.457,9.401,8.269,19.094,11.409,29.013
			l0.623,2.057c3.01,11.723,4.521,23.78,4.497,35.883c0,80.118-64.949,145.067-145.067,145.067s-145.067-64.949-145.067-145.067
			c-0.025-12.123,1.489-24.201,4.506-35.942l0.589-1.946c3.157-9.955,6.983-19.685,11.452-29.124l0.068-0.145l0.077-0.137
			c24.973-47.805,74.44-77.774,128.375-77.774S359.403,200.634,384.375,248.439z M209.229,124.681
			c5.444-6.682,11.093-13.457,16.947-20.292l12.646,15.795C228.863,120.976,218.974,122.479,209.229,124.681z M273.178,120.183
			l12.629-15.778c5.837,6.827,11.529,13.594,16.973,20.275C293.031,122.483,283.139,120.98,273.178,120.183z M256,494.933
			c-98.923-0.113-179.087-80.277-179.2-179.2c-0.008-11.502,1.109-22.977,3.337-34.261c6.255-22.75,15.232-44.663,26.735-65.263
			c0.102-0.171,0.196-0.35,0.29-0.521c27.894-48.921,61.142-94.587,99.132-136.158l9.028,11.281
			c-13.508,15.753-26.146,31.241-37.547,46.08c-25.673,32.39-47.739,67.482-65.809,104.653
			c-4.818,10.183-8.935,20.684-12.322,31.428l-0.256,0.853c-0.188,0.631-0.367,1.22-0.495,1.707
			c-3.374,13.133-5.063,26.641-5.026,40.201c0,89.544,72.59,162.133,162.133,162.133s162.133-72.59,162.133-162.133
			c0.03-13.551-1.665-27.051-5.043-40.175c-0.137-0.546-0.316-1.135-0.503-1.766l-0.256-0.853l-0.043-0.119
			c-3.369-10.68-7.463-21.118-12.254-31.241c-18.074-37.193-40.149-72.305-65.835-104.713
			c-11.366-14.848-23.996-30.336-37.547-46.08l9.054-11.255c37.986,41.571,71.232,87.238,99.123,136.158
			c0.094,0.171,0.188,0.35,0.29,0.521c11.469,20.55,20.433,42.4,26.701,65.084v0.06v0.12c2.242,11.283,3.373,22.758,3.379,34.261
			C435.087,414.656,354.923,494.82,256,494.933z"/>
	</g>
</g>
<g>
</g>
<g>
</g>
<g>
</g>
<g>
</g>
<g>
</g>
<g>
</g>
<g>
</g>
<g>
</g>
<g>
</g>
<g>
</g>
<g>
</g>
<g>
</g>
<g>
</g>
<g>
</g>
<g>
</g>
</svg>
